PathFileType	4	(X/Y/Z)	45_1_13_p1_0-218.trc
DataRate	CameraRate	NumFrames	NumMarkers	Units	OrigDataRate	OrigDataStartFrame	OrigNumFrames
60.0	60.0	6	27	m	60.0	136	219
Frame#	Time	RHip			RKnee			RAnkle			RBigToe			RSmallToe			RHeel			LHip			LKnee			LAnkle			LBigToe			LSmallToe			LHeel			Neck			Head			Nose			RShoulder			RElbow			RWrist			RThumb			RIndex			RPinky			LShoulder			LElbow			LWrist			LThumb			LIndex			LPinky			
		X1	Y1	Z1	X2	Y2	Z2	X3	Y3	Z3	X4	Y4	Z4	X5	Y5	Z5	X6	Y6	Z6	X7	Y7	Z7	X8	Y8	Z8	X9	Y9	Z9	X10	Y10	Z10	X11	Y11	Z11	X12	Y12	Z12	X13	Y13	Z13	X14	Y14	Z14	X15	Y15	Z15	X16	Y16	Z16	X17	Y17	Z17	X18	Y18	Z18	X19	Y19	Z19	X20	Y20	Z20	X21	Y21	Z21	X22	Y22	Z22	X23	Y23	Z23	X24	Y24	Z24	X25	Y25	Z25	X26	Y26	Z26	X27	Y27	Z27	
136	2.2666666666666666	0.5720373395427447	0.38057099605733896	0.9349265526278017	0.5997241479189801	0.6324849098146855	1.325497436589909	0.6123582756319954	0.8419222672918542	1.6842863696965031	0.597216885110498	0.7137979915824733	1.7573734224944648	0.6521766732254025	0.7218375783074767	1.7504337850379939	0.5850857191275678	0.9426876723433208	1.7312603029519327	0.37527507295257306	0.3921681884088939	0.9450601939764349	0.3791451643706754	0.6422911750164303	1.3410510417043864	0.3978624444244024	0.8098243413650043	1.691316230457226	0.4341029007824052	0.6638217266502758	1.76065366674539	0.376134650981244	0.7015030539416275	1.7643367142721513	0.4086486599618345	0.8715328343582363	1.73893326518165	0.4400915351898824	0.2308306895248932	0.39374307695214006	0.44033643305218684	0.11802890921222539	0.20139734297909717	0.4455307561075031	0.085133416497157	0.33447485053330517	0.5915933829052017	0.22041638159827404	0.44549600841287074	0.6761204828081316	0.10075095018165836	0.2743112591717496	0.6049724726283239	0.0257830371901055	0.10199750512674721	0.5009617462932996	0.035269557754694564	0.03442766849464927	0.5301442858688028	0.041647565589435186	-0.022678789898690634	0.6025940994750454	0.028182170544667737	-0.029683177935675497	0.3181288815409466	0.25693427186136725	0.44957334242060365	0.16334321733888002	0.10904575865574478	0.3082074359817868	0.2268743379788072	0.027167569561154528	0.14610025643878471	0.30482353015951813	0.0779522770567374	0.060935304414497425	0.29093641256931974	0.08947190491575253	0.021757962680595516	0.2404613228781684	0.03304554467104461	0.03760499601301518
137	2.283333333333333	0.5710400245644233	0.38078538174429566	0.9310613381609038	0.5997827679514057	0.633369368541883	1.3256016560752126	0.6124610820905604	0.8420342670723372	1.6842718116742073	0.5970996390185375	0.713494746521372	1.7574794062991237	0.6518387032709404	0.7210186996512644	1.75046585549292	0.5851541791297508	0.942998371560147	1.731089829713029	0.3779955075560461	0.40504290457961795	0.9442305248468258	0.3791303622571387	0.6426254335569365	1.3411782119118933	0.39909610292407444	0.8135303472739123	1.6962238464721675	0.43406935862154444	0.6639635858498131	1.7607621503768647	0.375975871065816	0.7018043207749916	1.7644697093588708	0.4086695704375921	0.871598006874503	1.738951146482212	0.4406706456096637	0.23149129446076966	0.3971706561268136	0.4408568616604161	0.10372577903105117	0.20221039583676068	0.44558977888432816	0.08513289839108698	0.33461842389595753	0.5913378815593651	0.22175781260462954	0.44518181708961707	0.685060126227313	0.08010352729331627	0.2927780743218949	0.5986645342566189	0.027515423534322594	0.1191628770338296	0.5057685846562422	0.04813982319071638	0.0422092027939614	0.5312402286222695	0.044898999180378915	-0.012963063711310787	0.6030057893136542	0.029682695584801383	-0.024778797040974406	0.3191554621028894	0.2598478830217818	0.4563757614100499	0.1425580736736063	0.13561828874301335	0.32183510071006116	0.23236646409590864	0.03507488068841875	0.15984672455174181	0.3105839859011962	0.06963264340891549	0.07081339342710746	0.295218133882721	0.10577276804280529	0.03595033842391196	0.24453951268508659	0.05167352553030036	0.05486664540296116
138	2.3	0.5709278748831	0.37878170182976323	0.9316277148730593	0.5998886367321579	0.6333906165404675	1.3255769642881383	0.6124835030574264	0.841907930987532	1.6842510198483311	0.5970132946649414	0.7136939437975498	1.757572163266404	0.6473272535302178	0.718795834894508	1.7505988608799166	0.5851795227234416	0.9428661039856556	1.7307874866849025	0.3757042067202053	0.3925521578673588	0.9484113877751174	0.3791213172458243	0.6423657176845886	1.3408858769429892	0.397867555828094	0.8098784450103584	1.6913433730395684	0.4341066083594316	0.6640153267194393	1.7607762420782807	0.375982267073804	0.7017965683391523	1.7644578055329365	0.40861749767964584	0.8716881571525805	1.7390852191656134	0.4408430115031888	0.23232634120655435	0.40023550692437876	0.44403429581898957	0.10311366989562953	0.19837513191345546	0.44585852633879847	0.08575683011679568	0.33777699415603907	0.5922178331858607	0.2223271877952457	0.44875283596648136	0.7050681839739384	0.08185549972709835	0.29727763792384976	0.6041760853257617	0.03264096589675769	0.13151035891601315	0.516327381347752	0.05753712256207381	0.04857324653229906	0.5348876118972983	0.051846475261342596	0.00786312867625219	0.6003273444758752	0.027383470365839567	0.006332600428658666	0.31908156701607837	0.25986553898745224	0.45680554517563343	0.12467194907249105	0.14951234105371897	0.34220826734731064	0.2261193019275457	0.03661649231770527	0.1780794184295073	0.31830301566144864	0.06734604210021697	0.10391545934083177	0.2995658186094233	0.09031540788368778	0.06245972153793687	0.24482162189646148	0.047798523207719344	0.07809254430461467
139	2.316666666666667	0.5709942971006544	0.37884612914622773	0.9317814304512974	0.6076245947800084	0.6315951415339673	1.3241501393196997	0.6124261619551146	0.8422488307390009	1.6841998958338324	0.5969838833808534	0.7136515516260153	1.7575342740900837	0.6473837087386526	0.739506915895456	1.755354163978103	0.5898917821093164	0.9437659804982265	1.725081296940011	0.36775519797793926	0.39424057791669703	0.9536753996413414	0.37907993907219756	0.642870847473477	1.3411027905785977	0.3978320157008007	0.8099589362197868	1.6913774837028392	0.42873646130634047	0.6641664853082273	1.765128510961044	0.3759624220735158	0.7016931434049932	1.7644528053358675	0.4086164782846189	0.8718545368236629	1.738960716006681	0.4364787779646596	0.24391506640579744	0.39822370273885926	0.444607644561988	0.10545719112320304	0.20397755757146926	0.4454932166953859	0.08397867204773099	0.33530781968739926	0.5923447325900417	0.222552470234079	0.4489123806160237	0.7187504438167174	0.07470868645363633	0.30791000067436575	0.6092394180343212	0.036509428672640294	0.1410533674379695	0.5234990384443843	0.06566362748730847	0.06390069901779197	0.5388611275168121	0.06134340615952367	0.03651649543347445	0.6004630393473527	0.032484398055569304	0.0370296570219445	0.3157906204533757	0.260763794079927	0.464259822585908	0.11546348921668251	0.1507548915348728	0.35839344587019856	0.22505055334458612	0.06310200382377294	0.19019863959948707	0.32329489350611673	0.08594017108128092	0.12459349715423776	0.2993490188359786	0.1173064376733676	0.07371021472895917	0.24768481890968533	0.05472203606294041	0.10220979356888023
140	2.3333333333333335	0.5719893124720993	0.38254588397837047	0.9389560206945473	0.5983745415411695	0.6309291825920209	1.321643527247	0.612266660095412	0.8419641964480193	1.684201703672475	0.5969851608323803	0.713723961422912	1.757487589100057	0.6414711359504582	0.7334278030542992	1.7509241547505108	0.5857803900806794	0.9412596154945273	1.725252689492748	0.3646407665020308	0.3922922689179636	0.9579670574023051	0.3791029351013106	0.6427297704400406	1.3410979540639285	0.3978458925162086	0.8098556815434291	1.691329957314392	0.4334368000311744	0.6656332107537514	1.7646661986574899	0.37600485912891946	0.7016498774543173	1.7644151884360684	0.4086663447724818	0.8718236065369892	1.7389098166547945	0.4408641928388673	0.23225413287013313	0.40002085148856925	0.4515919179582289	0.11776156380324918	0.20341010489191766	0.44842417355262093	0.09591269982702486	0.3349508697812794	0.5923172160184507	0.22237763369930133	0.44919218185904863	0.7213813184861685	0.08154363719475623	0.32365401827817436	0.6155701206018667	0.030044423160878436	0.15897198344091354	0.5271402034043693	0.09493677964449519	0.08157875246838511	0.5357940875969635	0.07381798063626825	0.04266324308467904	0.5990745319114543	0.035254186645847195	0.046721777407716686	0.31072868875108567	0.2496286728275674	0.4741491850065072	0.10639075808812702	0.1300165758485219	0.3853982009141919	0.2234834136172317	0.04353021386777322	0.23413500225096995	0.32149786517787965	0.07466219638802059	0.15436324449985966	0.30208915109226225	0.1206200290905041	0.11201463650623214	0.2501706592137601	0.05841681188401669	0.14620872486189543
141	2.35	0.572695015618926	0.38274787366066765	0.9430026944688766	0.5983250620582817	0.630380227503825	1.3216016097803147	0.6084764247998357	0.8264760896676103	1.6816638966498068	0.5969209351574845	0.713738004999503	1.7574814155339105	0.641454401179214	0.733593460990306	1.7509750746798172	0.5857549480049538	0.941002166471831	1.7252546728304647	0.36607361329763527	0.394441316173472	0.9654807203174676	0.38034039451184914	0.6456198066721741	1.345592002609752	0.39786479124540725	0.8098966257862619	1.6912363576449359	0.4340312106355276	0.6639465969194849	1.760746765305317	0.37585774307173075	0.7020644970914643	1.7645234541089978	0.40861199451533586	0.8717877619567846	1.7389286409861884	0.4411889320535327	0.2324856105553417	0.4031500366375764	0.44976746848248744	0.10870319165527724	0.20933955649595842	0.4462422122285353	0.0863277272163734	0.34105606842647235	0.5938572470274791	0.2256463556882477	0.45889308289121583	0.7353992878424129	0.08937001169659509	0.3486820785302809	0.6248384392383619	0.040875358752369376	0.18569328823803624	0.5296740124156495	0.08807953797010074	0.10143220537782073	0.538435425872588	0.07899162399088983	0.05984977571341118	0.6015113083832968	0.04104007510883524	0.06338816166165742	0.3104971267504321	0.24911398570886878	0.4744124812001244	0.10336387480032148	0.11350364384054352	0.40524464928552667	0.20864676480079783	0.07892811660028906	0.24753768254031613	0.32373264698052473	0.09127409938426619	0.17914914316642144	0.3037879331588599	0.13039952597813137	0.14122989891677726	0.2490986451353441	0.08531450613233209	0.15911208870604898
